<?xml version="1.0" standalone="yes"?>
<svg xmlns="http://www.w3.org/2000/svg" width="186" height="186">
<path style="fill:#ffffff; stroke:none;" d="M0 0L0 79L1 79C2.48215 69.7063 17.0057 72.8094 24 73.7184C43.1477 76.2066 70.0935 85.6322 79.8627 104C83.1803 110.238 72.4355 125.503 70.0532 132C63.6217 149.542 62.2277 165.444 69 183C35.7769 175.314 2.54185 142.365 1 107L0 107L0 186L81 186L81 185C73.7096 182.837 73.532 174.496 72.7191 168C70.2567 148.321 81.9158 134.846 89 118L91 118C100.721 141.35 109.321 161.171 99 186L186 186L186 0L98 0L98 1C103.845 1.00386 109.336 1.64465 115 3.15509C121.04 4.76578 131.104 6.75703 135.397 11.6373C139.463 16.2604 135.344 29.778 133.642 35C126.074 58.2176 105.057 72.2575 92 92L91 92C76.5502 67.5179 31.1005 56.2822 5 64C10.2504 28.9716 53.6905 1.02203 87 1L60 0L0 0z"/>
<path style="fill:#0f6939; stroke:none;" d="M5 64C34.618 56.9485 71.5367 68.5928 91 92C100.28 85.1688 108.007 73.7448 115.576 65C125.788 53.2002 134.14 40.8958 135.95 25C136.381 21.2122 138.361 15.0602 135.972 11.6373C130.167 3.31903 110.108 1.74176 101 0.831024C70.343 -2.23428 40.0559 10.2587 20.2855 34C13.4597 42.1968 5.95689 53.1087 5 64z"/>
<path style="fill:#8dc741; stroke:none;" d="M145 17C145.421 37.3734 143.403 55.1326 130.335 72C123.897 80.3093 116.191 87.2364 109.17 95C106.79 97.6311 102.51 101.315 101.996 105C101.039 111.869 110.77 125.877 112.975 133C118.64 151.304 117.263 166.532 110 184C187.894 180.604 214.605 51.6717 145 17z"/>
<path style="fill:#ffffff; stroke:none;" d="M89 34.7284C64.4214 35.3953 65.5555 73.5997 90 72.5293C114.314 71.4646 113.326 34.0683 89 34.7284z"/>
<path style="fill:#0f6939; stroke:none;" d="M69 183C64.1914 165.383 63.2219 152.694 69.3441 135C71.8647 127.715 82.4465 113.251 81.2222 106C80.2528 100.259 73.2105 95.3615 69 92.0039C55.2814 81.0641 40.2422 75.716 23 73.4244C18.2817 72.7973 6.57378 70.9895 2.58873 74.0278C-3.53386 78.6958 -0.348531 102.253 0.753858 109C6.25646 142.678 33.545 177.764 69 183z"/>
<path style="fill:#8dc741; stroke:none;" d="M89 118C79.7605 132.986 70.0989 149.582 72.5764 168C74.3642 181.291 82.1743 192.192 97.787 185.397C103.888 182.741 103.991 172.504 104 167C104.029 149.124 100.093 133.579 91 118L89 118z"/>
</svg>
